Coordinates
version=1
nRows=14
nColumns=36
inDegrees=yes

Units are S.I. units (second, meters, Newtons, ...)
If the header above contains a line with 'inDegrees', this indicates whether rotational values are in degrees (yes) or radians (no).

endheader
time	pelvis_tilt	pelvis_list	pelvis_rotation	pelvis_tx	pelvis_ty	pelvis_tz	hip_flexion_r	hip_adduction_r	hip_rotation_r	knee_angle_r	knee_angle_r_beta	ankle_angle_r	subtalar_angle_r	mtp_angle_r	hip_flexion_l	hip_adduction_l	hip_rotation_l	knee_angle_l	knee_angle_l_beta	ankle_angle_l	subtalar_angle_l	mtp_angle_l	lumbar_extension	lumbar_bending	lumbar_rotation	arm_flex_r	arm_add_r	arm_rot_r	elbow_flex_r	pro_sup_r	arm_flex_l	arm_add_l	arm_rot_l	elbow_flex_l	pro_sup_l
      0.00000000	     -4.97230182	     -2.58208659	     -2.49454697	     -0.15716065	      0.95360862	     -0.71577836	      5.65803154	     -8.00103099	     -0.88499094	      2.87398570	      0.05016051	      4.45275009	      2.23464163	     -6.04894558	      4.78920287	    -13.72666629	    -14.13970815	      4.86426828	      0.08489750	      6.66397628	      8.67783911	     -6.04894558	     -2.83384575	     -0.19076041	     -1.95187192	     -6.39626121	     -2.41063531	     -9.24032515	    127.55355849	    109.78901948	     -7.89814080	      0.81888887	    -16.66419369	    133.97841015	    105.80928352
      0.01000000	     -4.83764427	     -2.57732005	     -2.51342334	     -0.15712908	      0.95380288	     -0.71574596	      5.51477195	     -8.00880236	     -0.90353079	      2.86622136	      0.05002500	      4.36902133	      2.13895868	     -6.51292587	      4.63956339	    -13.73768106	    -14.44259370	      4.88494059	      0.08525830	      6.76288325	      9.09065134	     -6.51292587	     -2.99775897	     -0.21791325	     -1.91304156	     -6.36102303	     -2.39581763	     -9.30200920	    127.46781350	    110.65003601	     -7.82264643	      0.79880758	    -16.87650958	    133.65534519	    108.57905405
      0.02000000	     -4.86895824	     -2.58860280	     -2.48873342	     -0.15713422	      0.95375699	     -0.71579027	      5.54865439	     -8.00442373	     -0.95082034	      2.86994744	      0.05009003	      4.40012055	      2.30509910	     -6.56509180	      4.66269052	    -13.73295056	    -14.18545649	      4.85306732	      0.08470200	      6.69976618	      8.85540997	     -6.56509180	     -2.97010390	     -0.20653019	     -1.94442659	     -6.38414723	     -2.39111989	     -9.25010232	    127.58227802	    109.77567090	     -7.86142897	      0.77657983	    -16.78641163	    133.78362478	    107.83342234
      0.03000000	     -4.84231861	     -2.58531049	     -2.50456402	     -0.15714403	      0.95380137	     -0.71581396	      5.54087083	     -8.01187548	     -0.95697978	      2.89974874	      0.05061016	      4.36891412	      2.18933183	     -6.88409240	      4.64827952	    -13.73784881	    -14.36842476	      4.88550593	      0.08526816	      6.73181591	      8.96114904	     -6.88409240	     -3.00696386	     -0.21879282	     -1.94446083	     -6.37848347	     -2.40941310	     -9.25828524	    127.48453956	    110.40565146	     -7.84666965	      0.80726161	    -16.88547918	    133.71780959	    108.54661219
      0.04000000	     -4.83108350	     -2.60082538	     -2.49145348	     -0.15722900	      0.95379231	     -0.71576585	      5.51793600	     -7.98539678	     -0.89021284	      2.87749706	      0.05022180	      4.20710755	      1.91496239	     -7.04037940	      4.67320783	    -13.77968483	    -14.41950641	      4.93869955	      0.08619657	      6.82704116	      9.15672795	     -7.04037940	     -3.03158774	     -0.20714319	     -1.92103303	     -6.39515611	     -2.36835568	     -9.29077899	    127.58456626	    109.98849679	     -7.80813465	      0.76155305	    -16.81057161	    133.73527774	    108.15338038
      0.05000000	     -4.78473488	     -2.60460275	     -2.49941489	     -0.15725403	      0.95389288	     -0.71574884	      5.47171245	     -7.97849333	     -0.85539393	      2.87554290	      0.05018769	      4.20754967	      1.94657638	     -7.09413801	      4.60732868	    -13.76922989	    -14.41733906	      4.90262044	      0.08556687	      6.74456339	      9.02328197	     -7.09413801	     -3.10579390	     -0.21451599	     -1.94547205	     -6.37896411	     -2.36751403	     -9.13327736	    127.69293845	    107.78088842	     -7.83563148	      0.78047685	    -16.72144873	    133.96960368	    106.17636179
      0.06000000	     -4.82804323	     -2.60367846	     -2.51619303	     -0.15735946	      0.95382434	     -0.71574737	      5.55543332	     -7.98192425	     -0.75425141	      2.93255493	      0.05118274	      4.24675228	      1.91247795	     -7.15179192	      4.70183798	    -13.79280945	    -14.53080802	      5.00326824	      0.08732350	      6.87595819	      9.31180718	     -7.15179192	     -3.06285856	     -0.21383449	     -1.95838011	     -6.34698918	     -2.37441566	     -9.27490614	    127.51580938	    110.31836710	     -7.84455469	      0.80235479	    -16.93455845	    133.75495803	    108.34701196
      0.07000000	     -5.09474796	     -2.63935233	     -2.47706825	     -0.15744973	      0.95343721	     -0.71578541	      5.89428977	     -7.93976340	     -0.85838925	      3.03262626	      0.05292931	      4.29977602	      2.00107918	     -7.17535659	      5.04848631	    -13.82747506	    -14.09510864	      5.07113423	      0.08850799	      6.81784923	      8.63970469	     -7.17535659	     -2.72384184	     -0.16260083	     -1.99819554	     -6.46323059	     -2.35625541	     -9.25999025	    127.71102699	    108.78347863	     -7.98181935	      0.76002313	    -16.75533379	    133.90734383	    106.98739251
      0.08000000	     -4.81750997	     -2.59746566	     -2.50737882	     -0.15752800	      0.95385170	     -0.71574171	      5.60397997	     -7.99918460	     -0.84474535	      3.01667332	      0.05265088	      4.33758054	      2.10177237	     -7.25899589	      4.72448872	    -13.78463776	    -14.43593589	      5.03583512	      0.08789190	      6.76579450	      9.07611887	     -7.25899589	     -3.10382364	     -0.23258803	     -1.92673908	     -6.38220842	     -2.33594996	     -9.36193473	    127.59288849	    110.40943195	     -7.79876704	      0.75277806	    -16.91154619	    133.72856221	    108.49229417
      0.09000000	     -4.82376123	     -2.62238200	     -2.50897994	     -0.15768566	      0.95386298	     -0.71571992	      5.63805063	     -7.96472291	     -0.75431485	      3.04712156	      0.05318230	      4.22278376	      1.81801366	     -7.31998526	      4.78301627	    -13.83830077	    -14.53273733	      5.12539721	      0.08945506	      6.87785065	      9.32754751	     -7.31998526	     -3.12499842	     -0.21036690	     -1.93000489	     -6.36298212	     -2.33234876	     -9.34098957	    127.63064854	    109.99805551	     -7.78298954	      0.73295594	    -16.88572630	    133.79037529	    107.95320126
      0.10000000	     -4.82321017	     -2.62630260	     -2.52314006	     -0.15783020	      0.95389330	     -0.71567596	      5.70219481	     -7.96352936	     -0.84565151	      3.15135158	      0.05500146	      4.38239408	      2.09287985	     -7.35320842	      4.82490251	    -13.86661253	    -14.66367971	      5.19352578	      0.09064412	      6.93921001	      9.50287250	     -7.35320842	     -3.14959058	     -0.21112531	     -1.98615278	     -6.29852729	     -2.32504342	     -9.27991765	    127.58583278	    110.19360774	     -7.82462529	      0.75221528	    -16.99853619	    133.84975469	    108.11033642
      0.11000000	     -4.84039743	     -2.63239715	     -2.51044017	     -0.15801171	      0.95389477	     -0.71567734	      5.76003421	     -7.95645888	     -0.84572105	      3.21376266	      0.05609074	      4.39353264	      2.08500724	     -7.36096634	      4.86466897	    -13.85877339	    -14.43107267	      5.19404292	      0.09065315	      6.82167603	      9.09035621	     -7.36096634	     -3.16404074	     -0.20950178	     -1.98149505	     -6.30782895	     -2.29991030	     -9.29940012	    127.66207462	    109.64749759	     -7.78999931	      0.73126968	    -16.92689833	    133.88472382	    107.64333325
      0.12000000	     -4.97935808	     -2.63319897	     -2.52158568	     -0.15819462	      0.95371726	     -0.71561147	      5.98005262	     -7.94665561	     -0.88997475	      3.30931774	      0.05775849	      4.39856912	      2.05615405	     -7.36508350	      5.05675252	    -13.86677409	    -14.28719574	      5.24431607	      0.09153058	      6.74640352	      8.84000356	     -7.36508350	     -2.98100520	     -0.22553959	     -1.96708236	     -6.33514022	     -2.27920472	     -9.28269072	    127.61458520	    109.37230705	     -7.83347952	      0.69542581	    -16.86504061	    133.87298634	    107.36451911
      0.13000000	     -4.83387944	     -2.66318383	     -2.54240808	     -0.15840171	      0.95393220	     -0.71557045	      5.85791886	     -7.91889764	     -0.86424353	      3.34324712	      0.05835067	      4.35419927	      2.12491335	     -7.39441874	      4.91148429	    -13.90459935	    -14.34563772	      5.26951765	      0.09197043	      6.75147483	      8.90603778	     -7.39441874	     -3.23768814	     -0.18496837	     -1.93508114	     -6.26832882	     -2.26375156	     -9.37564866	    127.62669247	    110.54176447	     -7.73103165	      0.69648046	    -16.97669027	    133.80262435	    108.59889227
